<svg width="25" height="18" viewBox="0 0 25 18" fill="none" xmlns="http://www.w3.org/2000/svg">
<g clip-path="url(#clip0_1852_1827)">
<path d="M24.6162 0.857422H0.616211V18.0003H24.6162V0.857422Z" fill="#C0032C"/>
<path d="M0.616211 2.83447H24.6162H0.616211ZM24.6162 5.47257H0.616211H24.6162ZM0.616211 8.11066H24.6162H0.616211ZM24.6162 10.7469H0.616211H24.6162ZM0.616211 13.3849H24.6162H0.616211ZM24.6162 16.023H0.616211H24.6162Z" fill="black"/>
<path d="M0.616211 2.83447H24.6162M24.6162 5.47257H0.616211M0.616211 8.11066H24.6162M24.6162 10.7469H0.616211M0.616211 13.3849H24.6162M24.6162 16.023H0.616211" stroke="white" stroke-width="1.5" stroke-miterlimit="10"/>
<path d="M12.6944 0.857422H0.616211V10.2555H12.6944V0.857422Z" fill="#002368"/>
<path d="M1.62429 1.25342L1.91229 2.2077L1.15674 1.61723H2.08652L1.33629 2.2077L1.62429 1.25342Z" fill="white"/>
<path d="M1.62429 3.09912L1.91229 4.05341L1.15674 3.46293H2.08652L1.33274 4.05341L1.62429 3.09912Z" fill="white"/>
<path d="M1.62447 4.94482L1.91247 5.89911L1.15869 5.30863H2.08847L1.33469 5.89911L1.62447 4.94482Z" fill="white"/>
<path d="M1.62447 6.79053L1.91247 7.74481L1.15869 7.15434H2.08847L1.33469 7.74481L1.62447 6.79053Z" fill="white"/>
<path d="M1.62447 8.63818L1.91247 9.59247L1.15869 9.00199H2.08847L1.33469 9.59247L1.62447 8.63818Z" fill="white"/>
<path d="M2.62886 2.17529L2.91686 3.12958L2.16309 2.5391H3.09286L2.34264 3.12958L2.62886 2.17529Z" fill="white"/>
<path d="M2.62886 4.02295L2.91686 4.97723L2.16309 4.38676H3.09286L2.33909 4.97723L2.62886 4.02295Z" fill="white"/>
<path d="M2.62886 5.86865L2.91686 6.82294L2.16309 6.23246H3.09286L2.33909 6.82294L2.62886 5.86865Z" fill="white"/>
<path d="M2.62886 7.71436L2.91686 8.66864L2.16309 8.07817H3.09286L2.33909 8.66864L2.62886 7.71436Z" fill="white"/>
<path d="M3.63472 1.25342L3.92272 2.2077L3.16895 1.61723H4.1005L3.34672 2.2077L3.63472 1.25342Z" fill="white"/>
<path d="M3.63472 3.09912L3.92272 4.05341L3.16895 3.46293H4.1005L3.34672 4.05341L3.63472 3.09912Z" fill="white"/>
<path d="M3.63472 4.94482L3.92272 5.89911L3.16895 5.30863H4.1005L3.34672 5.89911L3.63472 4.94482Z" fill="white"/>
<path d="M3.63472 6.79053L3.92272 7.74481L3.16895 7.15434H4.1005L3.34672 7.74481L3.63472 6.79053Z" fill="white"/>
<path d="M3.63472 8.63818L3.92272 9.59247L3.16895 9.00199H4.1005L3.34672 9.59247L3.63472 8.63818Z" fill="white"/>
<path d="M4.64254 2.17529L4.93054 3.12958L4.17676 2.5391H5.10654L4.35276 3.12958L4.64254 2.17529Z" fill="white"/>
<path d="M4.64254 4.02295L4.93054 4.97723L4.17676 4.38676H5.10654L4.35276 4.97723L4.64254 4.02295Z" fill="white"/>
<path d="M4.64254 5.86865L4.93054 6.82294L4.17676 6.23246H5.10654L4.35276 6.82294L4.64254 5.86865Z" fill="white"/>
<path d="M4.64254 7.71436L4.93054 8.66864L4.17676 8.07817H5.10654L4.35276 8.66864L4.64254 7.71436Z" fill="white"/>
<path d="M5.64742 1.25342L5.93542 2.2077L5.18164 1.61723H6.11142L5.35764 2.2077L5.64742 1.25342Z" fill="white"/>
<path d="M5.64742 3.09912L5.93542 4.05341L5.18164 3.46293H6.11142L5.35764 4.05341L5.64742 3.09912Z" fill="white"/>
<path d="M5.64742 4.94482L5.93542 5.89911L5.18164 5.30863H6.11142L5.35764 5.89911L5.64742 4.94482Z" fill="white"/>
<path d="M5.64742 6.79053L5.93542 7.74481L5.18164 7.15434H6.11142L5.35764 7.74481L5.64742 6.79053Z" fill="white"/>
<path d="M5.64742 8.63818L5.93542 9.59247L5.18164 9.00199H6.11142L5.35764 9.59247L5.64742 8.63818Z" fill="white"/>
<path d="M6.65523 2.17529L6.94323 3.12958L6.18945 2.5391H7.11923L6.36545 3.12958L6.65523 2.17529Z" fill="white"/>
<path d="M6.65523 4.02295L6.94323 4.97723L6.18945 4.38676H7.11923L6.36545 4.97723L6.65523 4.02295Z" fill="white"/>
<path d="M6.65523 5.86865L6.94323 6.82294L6.18945 6.23246H7.11923L6.36545 6.82294L6.65523 5.86865Z" fill="white"/>
<path d="M6.65523 7.71436L6.94323 8.66864L6.18945 8.07817H7.11923L6.36545 8.66864L6.65523 7.71436Z" fill="white"/>
<path d="M7.66353 1.25342L7.95153 2.2077L7.19775 1.61723H8.12753L7.37375 2.2077L7.66353 1.25342Z" fill="white"/>
<path d="M7.66353 3.09912L7.95153 4.05341L7.19775 3.46293H8.12753L7.37375 4.05341L7.66353 3.09912Z" fill="white"/>
<path d="M7.66353 4.94482L7.95153 5.89911L7.19775 5.30863H8.12753L7.37375 5.89911L7.66353 4.94482Z" fill="white"/>
<path d="M7.66353 6.79053L7.95153 7.74481L7.19775 7.15434H8.12753L7.37375 7.74481L7.66353 6.79053Z" fill="white"/>
<path d="M7.66353 8.63818L7.95153 9.59247L7.19775 9.00199H8.12753L7.37375 9.59247L7.66353 8.63818Z" fill="white"/>
<path d="M8.66793 2.17529L8.95593 3.12958L8.20215 2.5391H9.13193L8.37815 3.12958L8.66793 2.17529Z" fill="white"/>
<path d="M8.66793 4.02295L8.95593 4.97723L8.20215 4.38676H9.13193L8.37815 4.97723L8.66793 4.02295Z" fill="white"/>
<path d="M8.66793 5.86865L8.95593 6.82294L8.20215 6.23246H9.13193L8.37815 6.82294L8.66793 5.86865Z" fill="white"/>
<path d="M8.66793 7.71436L8.95593 8.66864L8.20215 8.07817H9.13193L8.37815 8.66864L8.66793 7.71436Z" fill="white"/>
<path d="M9.67427 1.25342L9.96227 2.2077L9.2085 1.61723H10.1383L9.3845 2.2077L9.67427 1.25342Z" fill="white"/>
<path d="M9.67427 3.09912L9.96227 4.05341L9.2085 3.46293H10.1383L9.3845 4.05341L9.67427 3.09912Z" fill="white"/>
<path d="M9.67427 4.94482L9.96227 5.89911L9.2085 5.30863H10.1383L9.3845 5.89911L9.67427 4.94482Z" fill="white"/>
<path d="M9.67427 6.79053L9.96227 7.74481L9.2085 7.15434H10.1383L9.3845 7.74481L9.67427 6.79053Z" fill="white"/>
<path d="M9.67427 8.63818L9.96227 9.59247L9.2085 9.00199H10.1383L9.3845 9.59247L9.67427 8.63818Z" fill="white"/>
<path d="M10.6821 2.17529L10.9701 3.12958L10.2163 2.5391H11.1461L10.3923 3.12958L10.6821 2.17529Z" fill="white"/>
<path d="M10.6821 4.02295L10.9701 4.97723L10.2163 4.38676H11.1461L10.3923 4.97723L10.6821 4.02295Z" fill="white"/>
<path d="M10.6821 5.86865L10.9701 6.82294L10.2163 6.23246H11.1461L10.3923 6.82294L10.6821 5.86865Z" fill="white"/>
<path d="M10.6821 7.71436L10.9701 8.66864L10.2163 8.07817H11.1461L10.3923 8.66864L10.6821 7.71436Z" fill="white"/>
<path d="M11.6867 1.25342L11.9764 2.2077L11.2227 1.61723H12.1524L11.3987 2.2077L11.6867 1.25342Z" fill="white"/>
<path d="M11.6865 3.09912L11.9745 4.05341L11.2207 3.46293H12.1505L11.3967 4.05341L11.6865 3.09912Z" fill="white"/>
<path d="M11.6865 4.94482L11.9745 5.89911L11.2207 5.30863H12.1505L11.3967 5.89911L11.6865 4.94482Z" fill="white"/>
<path d="M11.6865 6.79053L11.9745 7.74481L11.2207 7.15434H12.1505L11.3967 7.74481L11.6865 6.79053Z" fill="white"/>
<path d="M11.6865 8.63818L11.9745 9.59247L11.2207 9.00199H12.1505L11.3967 9.59247L11.6865 8.63818Z" fill="white"/>
</g>
<defs>
<clipPath id="clip0_1852_1827">
<rect width="24" height="17.1429" fill="white" transform="translate(0.616211 0.857422)"/>
</clipPath>
</defs>
</svg>
